<svg width="200" height="200" viewBox="0 0 200 200" xmlns="http://www.w3.org/2000/svg">
  <defs>
    <linearGradient id="logoGradient" x1="0%" y1="0%" x2="100%" y2="100%">
      <stop offset="0%" stop-color="#4cc9f0"/>
      <stop offset="50%" stop-color="#6c63ff"/>
      <stop offset="100%" stop-color="#72f5ff"/>
    </linearGradient>
    <linearGradient id="accentGradient" x1="0%" y1="0%" x2="100%" y2="0%">
      <stop offset="0%" stop-color="#72f5ff"/>
      <stop offset="100%" stop-color="#4cc9f0"/>
    </linearGradient>
    <filter id="glow">
      <feGaussianBlur stdDeviation="3" result="coloredBlur"/>
      <feMerge> 
        <feMergeNode in="coloredBlur"/>
        <feMergeNode in="SourceGraphic"/>
      </feMerge>
    </filter>
  </defs>
  
  <!-- Cloud shape -->
  <path d="M60 120c-15 0-25-10-25-25 0-20 15-35 35-35 5-15 20-25 35-25 20 0 35 15 35 35 10 0 20 10 20 20 0 15-10 25-25 25z" 
        fill="url(#logoGradient)" 
        opacity="0.9" 
        filter="url(#glow)"/>
  
  <!-- Code brackets -->
  <path d="M75 95l-10 10 10 10M125 95l10 10-10 10" 
        stroke="url(#accentGradient)" 
        stroke-width="4" 
        stroke-linecap="round" 
        fill="none" 
        filter="url(#glow)"/>
  
  <!-- Center dot/gear -->
  <circle cx="100" cy="105" r="8" fill="#eff4ff" opacity="0.95"/>
  <circle cx="100" cy="105" r="4" fill="url(#logoGradient)"/>
  
  <!-- Connecting lines -->
  <path d="M85 105h10M105 105h10" 
        stroke="#eff4ff" 
        stroke-width="2" 
        opacity="0.7"/>
</svg>